<?xml version="1.0" encoding="UTF-8" standalone="no"?>
<svg
   fill="none"
   viewBox="0 0 48 48"
   version="1.1"
   id="svg4"
   sodipodi:docname="paypal.svg"
   inkscape:version="1.3.2 (091e20e, 2023-11-25, custom)"
   xmlns:inkscape="http://www.inkscape.org/namespaces/inkscape"
   xmlns:sodipodi="http://sodipodi.sourceforge.net/DTD/sodipodi-0.dtd"
   xmlns="http://www.w3.org/2000/svg"
   xmlns:svg="http://www.w3.org/2000/svg">
  <sodipodi:namedview
     id="namedview4"
     pagecolor="#ffffff"
     bordercolor="#000000"
     borderopacity="0.25"
     inkscape:showpageshadow="2"
     inkscape:pageopacity="0.0"
     inkscape:pagecheckerboard="0"
     inkscape:deskcolor="#d1d1d1"
     inkscape:zoom="16.1875"
     inkscape:cx="23.969112"
     inkscape:cy="24"
     inkscape:window-width="1920"
     inkscape:window-height="991"
     inkscape:window-x="-9"
     inkscape:window-y="-9"
     inkscape:window-maximized="1"
     inkscape:current-layer="g3" />
  <g
     clip-path="url(#a)"
     id="g3">
    <path
       fill="#002991"
       d="M38.914 13.35c0 5.574-5.144 12.15-12.927 12.15H18.49l-.368 2.322L16.373 39H7.056l5.605-36h15.095c5.083 0 9.082 2.833 10.555 6.77a9.687 9.687 0 0 1 .603 3.58z"
       id="path1"
       style="fill:#666666" />
    <path
       fill="#60CDFF"
       d="M44.284 23.7A12.894 12.894 0 0 1 31.53 34.5h-5.206L24.157 48H14.89l1.483-9 1.75-11.178.367-2.322h7.497c7.773 0 12.927-6.576 12.927-12.15 3.825 1.974 6.055 5.963 5.37 10.35z"
       id="path2"
       style="fill:#999999" />
    <path
       fill="#008CFF"
       d="M38.914 13.35C37.31 12.511 35.365 12 33.248 12h-12.64L18.49 25.5h7.497c7.773 0 12.927-6.576 12.927-12.15z"
       id="path3"
       style="fill:#808080" />
  </g>
  <defs
     id="defs4">
    <clipPath
       id="a">
      <path
         fill="#fff"
         d="M7.056 3h37.35v45H7.056z"
         id="path4" />
    </clipPath>
  </defs>
</svg>
