<?xml version="1.0" encoding="UTF-8" standalone="no"?>
<!-- Uploaded to: SVG Repo, www.svgrepo.com, Generator: SVG Repo Mixer Tools -->

<svg
   width="800px"
   height="800px"
   viewBox="0 0 1024 1024"
   version="1.1"
   id="svg1"
   sodipodi:docname="uber.svg"
   inkscape:version="1.3.2 (091e20e, 2023-11-25, custom)"
   xmlns:inkscape="http://www.inkscape.org/namespaces/inkscape"
   xmlns:sodipodi="http://sodipodi.sourceforge.net/DTD/sodipodi-0.dtd"
   xmlns="http://www.w3.org/2000/svg"
   xmlns:svg="http://www.w3.org/2000/svg">
  <defs
     id="defs1" />
  <sodipodi:namedview
     id="namedview1"
     pagecolor="#ffffff"
     bordercolor="#000000"
     borderopacity="0.25"
     inkscape:showpageshadow="2"
     inkscape:pageopacity="0.0"
     inkscape:pagecheckerboard="0"
     inkscape:deskcolor="#d1d1d1"
     inkscape:zoom="0.97125"
     inkscape:cx="399.4852"
     inkscape:cy="400"
     inkscape:window-width="1920"
     inkscape:window-height="991"
     inkscape:window-x="-9"
     inkscape:window-y="-9"
     inkscape:window-maximized="1"
     inkscape:current-layer="svg1" />
  <circle
     cx="512"
     cy="512"
     r="512"
     id="circle1"
     style="fill:#666666" />
  <path
     d="M303.9 584.8c26.9 0 47.8-20.8 47.8-51.7v-120h29.2v194.4H352v-18.1c-13.1 13.6-31.1 21.4-51.4 21.4-41.7 0-73.6-30.3-73.6-76.1V413.1h29.2v120c0 31.4 20.5 51.7 47.7 51.7m98.7-171.7h28.1v70.8c13.2-13.5 31.4-21.2 50.3-21.1 41.7 0 74.4 33.1 74.4 74.2 0 40.8-32.8 73.9-74.4 73.9-19 .1-37.2-7.6-50.6-21.1v17.8h-27.8V413.1zm76.3 173.1c26.7 0 48.6-21.9 48.6-49.2 0-27.5-21.9-49.2-48.6-49.2-26.9 0-48.9 21.7-48.9 49.2.1 27.2 21.7 49.2 48.9 49.2m160.3-123.1c40.8 0 70.8 31.4 70.8 73.6v9.2H594.8c3.9 23.1 23.1 40.3 46.9 40.3 16.4 0 30.3-6.7 40.8-20.8l20.3 15c-14.2 18.9-35.3 30.3-61.1 30.3-42.5 0-75.3-31.7-75.3-73.9 0-40.1 31.4-73.7 72.8-73.7m-43.9 60.6h86.4c-4.7-21.7-22.2-36.1-43.1-36.1s-38.3 14.4-43.3 36.1m190-32.8c-18.3 0-31.7 14.2-31.7 36.1v80.6h-28.1V465.9h27.8v17.5c6.9-11.4 18.3-18.6 33.9-18.6h9.7v26.1h-11.6z"
     style="fill:#fff"
     id="path1" />
</svg>
