<?xml version="1.0" encoding="UTF-8" standalone="no"?>
<!-- Uploaded to: SVG Repo, www.svgrepo.com, Generator: SVG Repo Mixer Tools -->

<svg
   width="800px"
   height="800px"
   viewBox="0 0 16 16"
   fill="none"
   version="1.1"
   id="svg4"
   sodipodi:docname="slack.svg"
   inkscape:version="1.3.2 (091e20e, 2023-11-25, custom)"
   xmlns:inkscape="http://www.inkscape.org/namespaces/inkscape"
   xmlns:sodipodi="http://sodipodi.sourceforge.net/DTD/sodipodi-0.dtd"
   xmlns="http://www.w3.org/2000/svg"
   xmlns:svg="http://www.w3.org/2000/svg">
  <defs
     id="defs4" />
  <sodipodi:namedview
     id="namedview4"
     pagecolor="#ffffff"
     bordercolor="#000000"
     borderopacity="0.25"
     inkscape:showpageshadow="2"
     inkscape:pageopacity="0.0"
     inkscape:pagecheckerboard="0"
     inkscape:deskcolor="#d1d1d1"
     inkscape:zoom="0.97125"
     inkscape:cx="399.4852"
     inkscape:cy="391.76319"
     inkscape:window-width="1920"
     inkscape:window-height="991"
     inkscape:window-x="-9"
     inkscape:window-y="-9"
     inkscape:window-maximized="1"
     inkscape:current-layer="svg4" />
  <g
     fill-rule="evenodd"
     clip-rule="evenodd"
     id="g4"
     style="fill:#666666">
    <path
       fill="#E01E5A"
       d="M2.471 11.318a1.474 1.474 0 001.47-1.471v-1.47h-1.47A1.474 1.474 0 001 9.846c.001.811.659 1.469 1.47 1.47zm3.682-2.942a1.474 1.474 0 00-1.47 1.471v3.683c.002.811.66 1.468 1.47 1.47a1.474 1.474 0 001.47-1.47V9.846a1.474 1.474 0 00-1.47-1.47z"
       id="path1"
       style="fill:#666666" />
    <path
       fill="#36C5F0"
       d="M4.683 2.471c.001.811.659 1.469 1.47 1.47h1.47v-1.47A1.474 1.474 0 006.154 1a1.474 1.474 0 00-1.47 1.47zm2.94 3.682a1.474 1.474 0 00-1.47-1.47H2.47A1.474 1.474 0 001 6.153c.002.812.66 1.469 1.47 1.47h3.684a1.474 1.474 0 001.47-1.47z"
       id="path2"
       style="fill:#666666" />
    <path
       fill="#2EB67D"
       d="M9.847 7.624a1.474 1.474 0 001.47-1.47V2.47A1.474 1.474 0 009.848 1a1.474 1.474 0 00-1.47 1.47v3.684c.002.81.659 1.468 1.47 1.47zm3.682-2.941a1.474 1.474 0 00-1.47 1.47v1.47h1.47A1.474 1.474 0 0015 6.154a1.474 1.474 0 00-1.47-1.47z"
       id="path3"
       style="fill:#666666" />
    <path
       fill="#ECB22E"
       d="M8.377 9.847c.002.811.659 1.469 1.47 1.47h3.683A1.474 1.474 0 0015 9.848a1.474 1.474 0 00-1.47-1.47H9.847a1.474 1.474 0 00-1.47 1.47zm2.94 3.682a1.474 1.474 0 00-1.47-1.47h-1.47v1.47c.002.812.659 1.469 1.47 1.47a1.474 1.474 0 001.47-1.47z"
       id="path4"
       style="fill:#666666" />
  </g>
</svg>
